#!OML:ASF I:\Random Stuff\random\construction\7_22_03\Session 2\subj1.ASF
:FULLY-SPECIFIED
:DEGREES
422
root 0.354578 17.8008 -0.353121 -0.97064 71.7685 -8.6969
lowerback -0.569148 0.943946 1.0308
upperback -2.83842 1.35322 1.9999
thorax -2.61852 0.695261 1.45154
lowerneck -24.0326 1.01099 3.12212
upperneck 24.067 0.418418 -0.246946
head 11.9013 0.492198 -0.531561
rclavicle -8.92357e-014 -2.38542e-015
rhumerus 0.207504 29.4162 -82.4043
rradius 105.503
rwrist -28.1783
rhand -35.1143 20.7207
rfingers 7.12502
rthumb -8.25506 -9.09803
lclavicle -8.92357e-014 -2.38542e-015
lhumerus -28.4828 -26.959 100.266
lradius 72.1332
lwrist 60.3906
lhand -18.3814 66.4122
lfingers 7.12502
lthumb 7.90228 -96.2445
rfemur -1.07366 7.25423 21.3714
rtibia -5.56597e-015
rfoot -2.42881 -14.8627
rtoes -15.6129
lfemur -9.99607 -16.3612 -12.853
ltibia 18.0715
lfoot -14.379 15.8468
ltoes -28.6501
423
root 0.359737 17.7982 -0.349434 -1.2609 71.5861 -8.84949
lowerback -0.610986 0.932377 1.01606
upperback -2.79735 1.33887 2.1141
thorax -2.55566 0.690299 1.57853
lowerneck -23.9202 1.04892 3.1221
upperneck 23.835 0.482136 -0.276528
head 11.7913 0.51252 -0.532148
rclavicle -3.75952e-014 9.14409e-015
rhumerus 1.77536 29.3214 -81.4807
rradius 105.959
rwrist -28.0005
rhand -35.0181 20.7628
rfingers 7.12502
rthumb -8.16228 -9.05957
lclavicle -3.75952e-014 9.14409e-015
lhumerus -28.7155 -27.0215 100.414
lradius 71.9105
lwrist 60.4365
lhand -16.4796 68.7355
lfingers 7.12502
lthumb 9.73742 -98.4904
rfemur -0.928951 7.43365 21.4637
rtibia 7.95139e-016
rfoot -2.48976 -14.9318
rtoes -14.7827
lfemur -9.77853 -16.2914 -12.8372
ltibia 18.1021
lfoot -14.4922 15.8958
ltoes -28.2949
424
root 0.362919 17.797 -0.352383 -1.26124 71.462 -8.75756
lowerback -0.669608 0.867156 1.00397
upperback -2.78533 1.25306 2.21146
thorax -2.51114 0.649432 1.68793
lowerneck -23.6905 1.09986 3.04215
upperneck 23.5109 0.579218 -0.238819
head 11.6244 0.548607 -0.489183
rclavicle -2.82026e-015 -1.98785e-015
rhumerus 3.40948 29.2894 -80.531
rradius 106.411
rwrist -27.7919
rhand -34.9012 20.716
rfingers 7.12502
rthumb -8.0494 -9.1107
lclavicle -2.82026e-015 -1.98785e-015
lhumerus -28.9351 -26.8776 100.521
lradius 71.6545
lwrist 60.3963
lhand -15.909 69.505
lfingers 7.12502
lthumb 10.2879 -99.2333
rfemur -0.855827 7.55484 21.4362
rtibia -4.77083e-015
rfoot -2.43919 -14.9285
rtoes -14.8563
lfemur -9.63736 -16.1987 -12.9121
ltibia 18.1163
lfoot -14.5361 15.9104
ltoes -28.2501
425
root 0.365082 17.7952 -0.355496 -1.26123 71.3453 -8.66605
lowerback -0.683012 0.849757 1.05558
upperback -2.80473 1.23086 2.21397
thorax -2.52211 0.637395 1.66202
lowerneck -23.6525 1.08349 3.07922
upperneck 23.531 0.525426 -0.172085
head 11.6241 0.537578 -0.479507
rclavicle -8.29305e-015 -1.19271e-015
rhumerus 4.99848 29.028 -79.6651
rradius 106.827
rwrist -27.8377
rhand -34.8089 20.4958
rfingers 7.12502
rthumb -7.96035 -9.33428
lclavicle -8.29305e-015 -1.19271e-015
lhumerus -29.2242 -26.987 100.582
lradius 71.3538
lwrist 60.6167
lhand -16.1436 69.7258
lfingers 7.12502
lthumb 10.0616 -99.4653
rfemur -1.60021 7.66466 21.4686
rtibia 1.63347
rfoot -3.19607 -15.1341
rtoes -14.9183
lfemur -9.47676 -16.1005 -12.9873
ltibia 18.0659
lfoot -14.5146 15.9285
ltoes -28.4727
426
root 0.367512 17.7915 -0.358349 -1.3072 71.2074 -8.57958
lowerback -0.660734 0.920759 1.13145
upperback -2.80093 1.32442 2.14362
thorax -2.5293 0.681103 1.54532
lowerneck -23.7951 0.973151 3.20521
upperneck 23.7842 0.292538 -0.0799199
head 11.7451 0.462129 -0.504521
rclavicle -5.22555e-014 9.93923e-015
rhumerus 6.52647 28.5232 -78.8314
rradius 107.215
rwrist -28.0046
rhand -34.8001 20.1978
rfingers 7.12502
rthumb -7.95188 -9.63259
lclavicle -5.22555e-014 9.93923e-015
lhumerus -29.4987 -27.3285 100.632
lradius 71.0894
lwrist 60.9612
lhand -16.8886 69.5591
lfingers 7.12502
lthumb 9.34287 -99.332
rfemur -2.15446 7.7959 21.5006
rtibia 2.98851
rfoot -3.80141 -15.2931
rtoes -15.1338
lfemur -9.22429 -16.0259 -13.0729
ltibia 17.9413
lfoot -14.4683 15.9594
ltoes -28.6205
427
root 0.367823 17.7909 -0.36756 -0.98628 71.1489 -8.1781
lowerback -0.698236 0.948985 1.12949
upperback -2.78934 1.35856 2.08009
thorax -2.49526 0.697019 1.48133
lowerneck -23.9073 0.912254 3.15368
upperneck 23.943 0.162534 0.126828
head 11.8258 0.430555 -0.44017
rclavicle -2.28602e-015 4.77083e-015
rhumerus 8.07175 28.0653 -77.9056
rradius 107.58
rwrist -28.1202
rhand -34.7243 20.1417
rfingers 7.12502
rthumb -7.8787 -9.6915
lclavicle -2.28602e-015 4.77083e-015
lhumerus -29.517 -27.1655 100.468
lradius 70.6486
lwrist 59.7559
lhand -16.0013 68.932
lfingers 7.12502
lthumb 10.1989 -98.6647
rfemur -2.60305 7.84818 21.3598
rtibia 3.9826
rfoot -4.24614 -15.4059
rtoes -15.4646
lfemur -9.05567 -15.9979 -13.2729
ltibia 17.7871
lfoot -14.4063 15.9763
ltoes -28.529
428
root 0.367262 17.7941 -0.383158 -0.195153 71.1649 -7.38957
lowerback -0.774863 0.932188 1.06374
upperback -2.83369 1.33232 1.98225
thorax -2.4963 0.683986 1.41898
lowerneck -23.9759 0.889967 3.24449
upperneck 24.037 0.109582 0.072286
head 11.8746 0.409737 -0.484493
rclavicle 5.17275e-014 -4.37326e-015
rhumerus 9.49108 27.6319 -77.0302
rradius 107.878
rwrist -28.1119
rhand -34.4817 20.2751
rfingers 7.12502
rthumb -7.64456 -9.56674
lclavicle 5.17275e-014 -4.37326e-015
lhumerus -29.7387 -27.2214 100.497
lradius 70.2956
lwrist 59.7964
lhand -16.8736 68.2739
lfingers 7.12502
lthumb 9.35732 -98.0462
rfemur -3.02007 7.82345 21.0122
rtibia 4.6831
rfoot -4.58324 -15.4969
rtoes -15.6535
lfemur -9.02163 -16.0061 -13.6059
ltibia 17.6312
lfoot -14.3235 15.9914
ltoes -28.4183
429
root 0.368581 17.7957 -0.391126 0.209885 71.1442 -6.96693
lowerback -0.810007 0.963559 1.04502
upperback -2.88389 1.37221 1.88641
thorax -2.52688 0.703019 1.33061
lowerneck -24.0514 0.848338 3.4497
upperneck 24.14 -0.000404767 -0.0308747
head 11.9274 0.368051 -0.575895
rclavicle -2.3205e-014 -4.37326e-015
rhumerus 10.7537 27.0675 -76.2788
rradius 108.064
rwrist -27.9254
rhand -34.2187 20.3295
rfingers 7.12502
rthumb -7.39063 -9.52136
lclavicle -2.3205e-014 -4.37326e-015
lhumerus -30.2037 -27.6671 100.727
lradius 70.037
lwrist 60.846
lhand -17.2597 68.9858
lfingers 7.12502
lthumb 8.98476 -98.7745
rfemur -3.30317 7.83711 20.8356
rtibia 5.22486
rfoot -4.84269 -15.5676
rtoes -15.7213
lfemur -8.93506 -15.9824 -13.7932
ltibia 17.4777
lfoot -14.2461 15.9964
ltoes -28.4668
430
root 0.36903 17.7948 -0.392407 0.182094 71.1128 -6.94321
lowerback -0.806439 0.979179 1.05368
upperback -2.90396 1.39324 1.86267
thorax -2.54909 0.713029 1.30083
lowerneck -24.1779 0.829137 3.4216
upperneck 24.3375 -0.0765692 0.156882
head 12.028 0.361788 -0.513356
rclavicle -1.07064e-014 3.97569e-016
rhumerus 12.017 26.5761 -75.5413
rradius 108.159
rwrist -27.6022
rhand -33.8453 19.9929
rfingers 7.12502
rthumb -7.03025 -9.87034
lclavicle -1.07064e-014 3.97569e-016
lhumerus -30.4774 -27.6108 100.752
lradius 69.6951
lwrist 60.4869
lhand -17.8884 68.4436
lfingers 7.12502
lthumb 8.378 -98.2575
rfemur -3.39191 7.86698 20.8432
rtibia 5.52344
rfoot -5.04031 -15.6051
rtoes -15.5769
lfemur -8.81791 -16.0274 -13.8257
ltibia 17.3777
lfoot -14.1936 16.073
ltoes -28.5954
431
root 0.367985 17.7924 -0.394597 0.174638 71.0998 -6.8885
lowerback -0.78226 0.949235 1.03925
upperback -2.93427 1.35559 1.8875
thorax -2.59435 0.695111 1.33428
lowerneck -24.2134 0.778706 3.33467
upperneck 24.5176 -0.147362 0.267003
head 12.1042 0.341397 -0.469327
rclavicle 1.88473e-014 -3.57812e-015
rhumerus 13.1884 26.169 -74.833
rradius 108.281
rwrist -27.2792
rhand -33.0553 19.0442
rfingers 7.12502
rthumb -6.26759 -10.8431
lclavicle 1.88473e-014 -3.57812e-015
lhumerus -30.7511 -27.3928 100.855
lradius 69.2729
lwrist 60.2017
lhand -17.5704 68.5319
lfingers 7.12502
lthumb 8.68493 -98.3333
rfemur -3.29334 7.87881 20.8265
rtibia 5.46153
rfoot -5.07704 -15.6023
rtoes -15.3975
lfemur -8.74916 -16.1382 -13.8716
ltibia 17.3795
lfoot -14.18 16.2077
ltoes -28.7504
432
root 0.36653 17.7899 -0.395016 0.00244537 71.1011 -7.005
lowerback -0.757536 0.914967 1.06133
upperback -2.98798 1.31499 1.95425
thorax -2.66426 0.675871 1.39028
lowerneck -24.0292 0.701381 3.25635
upperneck 24.5072 -0.21159 0.249547
head 12.063 0.303072 -0.474032
rclavicle -1.34646e-014 1.03368e-014
rhumerus 14.1929 25.7088 -74.2137
rradius 108.404
rwrist -27.0289
rhand -31.9535 18.0859
rfingers 7.12502
rthumb -5.20383 -11.8302
lclavicle -1.34646e-014 1.03368e-014
lhumerus -31.079 -27.1616 101.036
lradius 68.8257
lwrist 59.8013
lhand -17.7627 67.8665
lfingers 7.12502
lthumb 8.49931 -97.6754
rfemur -3.08171 7.87897 20.8791
rtibia 5.18932
rfoot -4.96048 -15.5809
rtoes -15.3292
lfemur -8.71421 -16.1859 -13.8465
ltibia 17.4425
lfoot -14.1893 16.2607
ltoes -28.9996
